<?xml version="1.0" encoding="UTF-8"?>
<!DOCTYPE svg PUBLIC "-//W3C//DTD SVG 1.1//EN" "http://www.w3.org/Graphics/SVG/1.1/DTD/svg11.dtd">
<svg xmlns="http://www.w3.org/2000/svg" version="1.1" width="345px" height="376px" style="shape-rendering:geometricPrecision; text-rendering:geometricPrecision; image-rendering:optimizeQuality; fill-rule:evenodd; clip-rule:evenodd" xmlns:xlink="http://www.w3.org/1999/xlink">
<g><path style="opacity:0.998" fill="#ff0a03" d="M 201.5,44.5 C 210.861,57.1939 221.861,68.1939 234.5,77.5C 234.5,77.8333 234.5,78.1667 234.5,78.5C 197.167,78.5 159.833,78.5 122.5,78.5C 123.038,76.8828 123.371,75.2161 123.5,73.5C 128.195,59.6084 134.862,46.7751 143.5,35C 140.5,34.3333 137.5,34.3333 134.5,35C 129.756,38.3531 124.756,39.1864 119.5,37.5C 127.953,28.8473 138.119,22.8473 150,19.5C 151.855,20.6632 153.189,22.3299 154,24.5C 162.868,15.4661 173.368,9.13276 185.5,5.5C 186.772,5.56983 187.938,5.90316 189,6.5C 189.681,20.3769 193.848,33.0436 201.5,44.5 Z"/></g>
<g><path style="opacity:0.991" fill="#f9cc1f" d="M 239.5,81.5 C 238.5,80.8333 237.5,80.1667 236.5,79.5C 236.167,78.5 235.5,77.8333 234.5,77.5C 221.861,68.1939 210.861,57.1939 201.5,44.5C 206.687,41.7407 212.02,39.2407 217.5,37C 219.167,36.3333 220.833,36.3333 222.5,37C 224.149,53.4579 229.816,68.2913 239.5,81.5 Z"/></g>
<g><path style="opacity:0.999" fill="#f30e06" d="M 123.5,73.5 C 109.502,81.0035 100.002,92.3369 95,107.5C 87.6742,134.214 86.1742,161.214 90.5,188.5C 87.1897,186.518 84.1897,184.185 81.5,181.5C 82.8333,178.833 82.8333,176.167 81.5,173.5C 79.1737,144.907 81.0071,116.573 87,88.5C 92.8155,68.1791 103.649,51.1791 119.5,37.5C 124.756,39.1864 129.756,38.3531 134.5,35C 137.5,34.3333 140.5,34.3333 143.5,35C 134.862,46.7751 128.195,59.6084 123.5,73.5 Z"/></g>
<g><path style="opacity:1" fill="#e90400" d="M 123.5,73.5 C 123.371,75.2161 123.038,76.8828 122.5,78.5C 120.955,79.2297 120.122,80.563 120,82.5C 119.719,87.2154 119.219,91.8821 118.5,96.5C 112.533,103.43 108.366,111.43 106,120.5C 101.984,137.655 100.817,154.988 102.5,172.5C 98.0753,177.684 94.4087,183.351 91.5,189.5C 90.8333,189.5 90.5,189.167 90.5,188.5C 86.1742,161.214 87.6742,134.214 95,107.5C 100.002,92.3369 109.502,81.0035 123.5,73.5 Z"/></g>
<g><path style="opacity:1" fill="#ffd400" d="M 122.5,78.5 C 159.833,78.5 197.167,78.5 234.5,78.5C 235.476,89.085 235.809,99.7517 235.5,110.5C 235.5,113.167 235.5,115.833 235.5,118.5C 235.5,120.5 235.5,122.5 235.5,124.5C 229.5,124.5 223.5,124.5 217.5,124.5C 213.167,124.5 208.833,124.5 204.5,124.5C 191.587,124.178 178.754,124.511 166,125.5C 164.831,134.176 164.664,142.843 165.5,151.5C 176.406,149.753 187.406,149.087 198.5,149.5C 204.12,150.992 209.787,152.659 215.5,154.5C 238.005,167.648 249.338,187.481 249.5,214C 249.381,225.549 247.381,236.716 243.5,247.5C 235.883,263.784 223.55,274.784 206.5,280.5C 183.389,285.952 160.056,286.952 136.5,283.5C 130.481,282.818 124.481,281.485 118.5,279.5C 117.07,278.463 115.403,277.796 113.5,277.5C 112.167,276.5 110.833,275.5 109.5,274.5C 108.85,259.794 109.517,245.461 111.5,231.5C 121.814,235.745 132.481,238.745 143.5,240.5C 151.933,242.246 160.6,242.912 169.5,242.5C 188.969,239.234 196.802,227.9 193,208.5C 189.094,198.945 181.927,193.445 171.5,192C 157.929,190.669 144.595,191.836 131.5,195.5C 127.5,193.5 123.5,191.5 119.5,189.5C 117.004,188.42 114.67,187.086 112.5,185.5C 114.968,155.875 116.968,126.209 118.5,96.5C 119.219,91.8821 119.719,87.2154 120,82.5C 120.122,80.563 120.955,79.2297 122.5,78.5 Z"/></g>
<g><path style="opacity:0.999" fill="#fe0a01" d="M 236.5,79.5 C 237.5,80.1667 238.5,80.8333 239.5,81.5C 253.059,91.3882 265.393,102.722 276.5,115.5C 293.951,137.418 303.951,162.418 306.5,190.5C 307.522,201.482 307.522,212.482 306.5,223.5C 303.728,249.484 295.395,273.484 281.5,295.5C 270.53,310.169 257.197,322.336 241.5,332C 235.039,336.328 231.373,334.828 230.5,327.5C 232.5,326.357 233.167,324.857 232.5,323C 233.914,321.007 234.914,318.84 235.5,316.5C 241.741,306.445 245.407,295.445 246.5,283.5C 247.49,277.355 247.823,271.022 247.5,264.5C 246.318,258.775 244.985,253.108 243.5,247.5C 247.381,236.716 249.381,225.549 249.5,214C 249.338,187.481 238.005,167.648 215.5,154.5C 215.002,151.533 214.669,148.533 214.5,145.5C 215.372,138.475 216.372,131.475 217.5,124.5C 223.5,124.5 229.5,124.5 235.5,124.5C 235.5,122.5 235.5,120.5 235.5,118.5C 250.551,144.603 264.051,171.603 276,199.5C 277.079,201.394 278.413,201.727 280,200.5C 280.053,173.324 271.386,149.324 254,128.5C 248.635,121.969 242.802,115.969 236.5,110.5C 236.5,100.167 236.5,89.8333 236.5,79.5 Z"/></g>
<g><path style="opacity:1" fill="#ff6c00" d="M 234.5,77.5 C 235.5,77.8333 236.167,78.5 236.5,79.5C 236.5,89.8333 236.5,100.167 236.5,110.5C 236.167,110.5 235.833,110.5 235.5,110.5C 235.809,99.7517 235.476,89.085 234.5,78.5C 234.5,78.1667 234.5,77.8333 234.5,77.5 Z"/></g>
<g><path style="opacity:1" fill="#da0b00" d="M 118.5,96.5 C 116.968,126.209 114.968,155.875 112.5,185.5C 111.833,185.833 111.167,186.167 110.5,186.5C 110.5,180.833 110.5,175.167 110.5,169.5C 107.385,169.394 104.719,170.394 102.5,172.5C 100.817,154.988 101.984,137.655 106,120.5C 108.366,111.43 112.533,103.43 118.5,96.5 Z"/></g>
<g><path style="opacity:0.994" fill="#ffd210" d="M 276.5,115.5 C 328.816,152.891 349.649,203.558 339,267.5C 332.085,311.036 309.585,343.536 271.5,365C 266.178,365.34 264.011,362.84 265,357.5C 277.117,338.642 282.617,317.975 281.5,295.5C 295.395,273.484 303.728,249.484 306.5,223.5C 307.935,225.598 309.102,227.931 310,230.5C 311.11,232.037 312.61,232.703 314.5,232.5C 315.02,217.771 312.353,203.771 306.5,190.5C 303.951,162.418 293.951,137.418 276.5,115.5 Z"/></g>
<g><path style="opacity:1" fill="#df0a00" d="M 204.5,124.5 C 203.251,131.667 201.918,138.834 200.5,146C 200.392,147.681 199.725,148.848 198.5,149.5C 187.406,149.087 176.406,149.753 165.5,151.5C 164.664,142.843 164.831,134.176 166,125.5C 178.754,124.511 191.587,124.178 204.5,124.5 Z"/></g>
<g><path style="opacity:1" fill="#ee0500" d="M 204.5,124.5 C 208.833,124.5 213.167,124.5 217.5,124.5C 216.372,131.475 215.372,138.475 214.5,145.5C 214.669,148.533 215.002,151.533 215.5,154.5C 209.787,152.659 204.12,150.992 198.5,149.5C 199.725,148.848 200.392,147.681 200.5,146C 201.918,138.834 203.251,131.667 204.5,124.5 Z"/></g>
<g><path style="opacity:1" fill="#f5c600" d="M 235.5,110.5 C 235.833,110.5 236.167,110.5 236.5,110.5C 242.802,115.969 248.635,121.969 254,128.5C 271.386,149.324 280.053,173.324 280,200.5C 278.413,201.727 277.079,201.394 276,199.5C 264.051,171.603 250.551,144.603 235.5,118.5C 235.5,115.833 235.5,113.167 235.5,110.5 Z"/></g>
<g><path style="opacity:0.998" fill="#fd0b03" d="M 80.5,178.5 C 81.1098,179.391 81.4431,180.391 81.5,181.5C 84.1897,184.185 87.1897,186.518 90.5,188.5C 90.5,189.167 90.8333,189.5 91.5,189.5C 98.3683,191.425 104.702,190.425 110.5,186.5C 111.167,186.167 111.833,185.833 112.5,185.5C 114.67,187.086 117.004,188.42 119.5,189.5C 125.933,200.434 134.6,209.267 145.5,216C 149.71,219.967 151.543,224.8 151,230.5C 148.58,234.555 146.08,237.889 143.5,240.5C 132.481,238.745 121.814,235.745 111.5,231.5C 110.791,230.596 109.791,230.263 108.5,230.5C 108.171,245.343 108.504,260.01 109.5,274.5C 110.833,275.5 112.167,276.5 113.5,277.5C 112.719,286.951 114.053,295.951 117.5,304.5C 121.855,315.863 128.689,325.529 138,333.5C 139.814,335.715 140.314,338.048 139.5,340.5C 133.97,341.505 128.637,340.672 123.5,338C 115.955,334.396 108.622,330.563 101.5,326.5C 92.9621,321.138 85.1287,314.805 78,307.5C 81.2563,323.799 89.2563,337.465 102,348.5C 105.628,352.609 104.961,355.275 100,356.5C 60.9651,345.471 32.9651,321.471 16,284.5C 3.26638,256.42 0.933048,227.42 9,197.5C 13.6917,180.94 21.8584,166.44 33.5,154C 37.0307,151.459 39.364,152.125 40.5,156C 39.0291,167.299 39.6958,178.466 42.5,189.5C 43.1667,192.167 43.8333,192.167 44.5,189.5C 48.0232,169.952 56.6899,153.119 70.5,139C 72.3969,137.89 74.2302,137.724 76,138.5C 76.3333,147.167 76.6667,155.833 77,164.5C 77.6602,169.31 78.8269,173.977 80.5,178.5 Z"/></g>
<g><path style="opacity:1" fill="#e8ba00" d="M 110.5,186.5 C 104.702,190.425 98.3683,191.425 91.5,189.5C 94.4087,183.351 98.0753,177.684 102.5,172.5C 104.719,170.394 107.385,169.394 110.5,169.5C 110.5,175.167 110.5,180.833 110.5,186.5 Z"/></g>
<g><path style="opacity:0.149" fill="#ffa19f" d="M 81.5,173.5 C 82.8333,176.167 82.8333,178.833 81.5,181.5C 81.4431,180.391 81.1098,179.391 80.5,178.5C 81.4511,177.081 81.7845,175.415 81.5,173.5 Z"/></g>
<g><path style="opacity:1" fill="#ff8d8b" d="M 42.5,189.5 C 43.1667,189.5 43.8333,189.5 44.5,189.5C 43.8333,192.167 43.1667,192.167 42.5,189.5 Z"/></g>
<g><path style="opacity:1" fill="#e60900" d="M 169.5,242.5 C 168.391,241.71 167.058,241.21 165.5,241C 172.419,233.55 173.252,225.383 168,216.5C 165.261,213.882 162.427,211.382 159.5,209C 152.332,204.917 145.332,200.584 138.5,196C 136.005,196.412 133.671,196.245 131.5,195.5C 144.595,191.836 157.929,190.669 171.5,192C 181.927,193.445 189.094,198.945 193,208.5C 196.802,227.9 188.969,239.234 169.5,242.5 Z"/></g>
<g><path style="opacity:1" fill="#f20300" d="M 119.5,189.5 C 123.5,191.5 127.5,193.5 131.5,195.5C 133.671,196.245 136.005,196.412 138.5,196C 145.332,200.584 152.332,204.917 159.5,209C 162.427,211.382 165.261,213.882 168,216.5C 173.252,225.383 172.419,233.55 165.5,241C 167.058,241.21 168.391,241.71 169.5,242.5C 160.6,242.912 151.933,242.246 143.5,240.5C 146.08,237.889 148.58,234.555 151,230.5C 151.543,224.8 149.71,219.967 145.5,216C 134.6,209.267 125.933,200.434 119.5,189.5 Z"/></g>
<g><path style="opacity:1" fill="#fef6f2" d="M 306.5,190.5 C 312.353,203.771 315.02,217.771 314.5,232.5C 312.61,232.703 311.11,232.037 310,230.5C 309.102,227.931 307.935,225.598 306.5,223.5C 307.522,212.482 307.522,201.482 306.5,190.5 Z"/></g>
<g><path style="opacity:1" fill="#ff6500" d="M 111.5,231.5 C 109.517,245.461 108.85,259.794 109.5,274.5C 108.504,260.01 108.171,245.343 108.5,230.5C 109.791,230.263 110.791,230.596 111.5,231.5 Z"/></g>
<g><path style="opacity:1" fill="#d9b000" d="M 243.5,247.5 C 244.985,253.108 246.318,258.775 247.5,264.5C 233.636,285.803 213.97,298.636 188.5,303C 180.881,304.205 173.214,304.705 165.5,304.5C 165.5,305.5 165.5,306.5 165.5,307.5C 164.599,306.71 163.932,305.71 163.5,304.5C 163.443,303.391 163.11,302.391 162.5,301.5C 157.96,296.259 153.293,296.259 148.5,301.5C 135.328,298.743 124.994,291.743 117.5,280.5C 117.624,279.893 117.957,279.56 118.5,279.5C 124.481,281.485 130.481,282.818 136.5,283.5C 140.945,287.726 146.279,290.56 152.5,292C 169.772,295.834 186.106,293.501 201.5,285C 203.618,283.951 205.284,282.451 206.5,280.5C 223.55,274.784 235.883,263.784 243.5,247.5 Z"/></g>
<g><path style="opacity:0.998" fill="#e7bd03" d="M 247.5,264.5 C 247.823,271.022 247.49,277.355 246.5,283.5C 232.702,297.405 216.368,307.239 197.5,313C 189.352,314.469 181.352,315.969 173.5,317.5C 169.7,315.037 167.033,311.704 165.5,307.5C 165.5,306.5 165.5,305.5 165.5,304.5C 173.214,304.705 180.881,304.205 188.5,303C 213.97,298.636 233.636,285.803 247.5,264.5 Z"/></g>
<g><path style="opacity:1" fill="#f11c00" d="M 206.5,280.5 C 205.284,282.451 203.618,283.951 201.5,285C 186.106,293.501 169.772,295.834 152.5,292C 146.279,290.56 140.945,287.726 136.5,283.5C 160.056,286.952 183.389,285.952 206.5,280.5 Z"/></g>
<g><path style="opacity:0.997" fill="#e6bc04" d="M 113.5,277.5 C 115.403,277.796 117.07,278.463 118.5,279.5C 117.957,279.56 117.624,279.893 117.5,280.5C 124.994,291.743 135.328,298.743 148.5,301.5C 148.5,303.167 148.5,304.833 148.5,306.5C 148.634,308.292 148.301,309.958 147.5,311.5C 146.849,312.091 146.182,312.757 145.5,313.5C 136.062,311.695 127.228,308.361 119,303.5C 118.235,303.57 117.735,303.903 117.5,304.5C 114.053,295.951 112.719,286.951 113.5,277.5 Z"/></g>
<g><path style="opacity:0.997" fill="#f4c70a" d="M 246.5,283.5 C 245.407,295.445 241.741,306.445 235.5,316.5C 224.947,321.553 213.947,324.553 202.5,325.5C 192.02,325.346 182.354,322.679 173.5,317.5C 181.352,315.969 189.352,314.469 197.5,313C 216.368,307.239 232.702,297.405 246.5,283.5 Z"/></g>
<g><path style="opacity:1" fill="#e0361b" d="M 162.5,301.5 C 159.982,302.264 157.649,303.264 155.5,304.5C 153.299,305.566 150.965,306.233 148.5,306.5C 148.5,304.833 148.5,303.167 148.5,301.5C 153.293,296.259 157.96,296.259 162.5,301.5 Z"/></g>
<g><path style="opacity:0.369" fill="#dfd4d2" d="M 162.5,301.5 C 163.11,302.391 163.443,303.391 163.5,304.5C 160.833,304.5 158.167,304.5 155.5,304.5C 157.649,303.264 159.982,302.264 162.5,301.5 Z"/></g>
<g><path style="opacity:0.992" fill="#f92311" d="M 235.5,316.5 C 234.914,318.84 233.914,321.007 232.5,323C 233.167,324.857 232.5,326.357 230.5,327.5C 220.877,336.128 210.211,343.128 198.5,348.5C 195.3,348.47 193.634,346.804 193.5,343.5C 196.495,337.51 199.495,331.51 202.5,325.5C 213.947,324.553 224.947,321.553 235.5,316.5 Z"/></g>
<g><path style="opacity:0.982" fill="#fccf18" d="M 147.5,311.5 C 148.178,333.189 156.678,351.189 173,365.5C 174.202,367.677 174.702,370.011 174.5,372.5C 169.295,372.866 164.295,372.033 159.5,370C 136.279,360.603 116.946,346.103 101.5,326.5C 108.622,330.563 115.955,334.396 123.5,338C 128.637,340.672 133.97,341.505 139.5,340.5C 140.314,338.048 139.814,335.715 138,333.5C 128.689,325.529 121.855,315.863 117.5,304.5C 117.735,303.903 118.235,303.57 119,303.5C 127.228,308.361 136.062,311.695 145.5,313.5C 146.182,312.757 146.849,312.091 147.5,311.5 Z"/></g>
</svg>
